<?xml version="1.0" encoding="utf-8"?>
<!-- Generator: Adobe Illustrator 18.1.1, SVG Export Plug-In . SVG Version: 6.00 Build 0)  -->
<svg version="1.1" xmlns="http://www.w3.org/2000/svg" xmlns:xlink="http://www.w3.org/1999/xlink" x="0px" y="0px"
	 viewBox="0 0 476.93 113.07" enable-background="new 0 0 476.93 113.07" xml:space="preserve">
<g id="Camada_2" display="none">
	<rect y="0" display="inline" width="476.93" height="113.07"/>
</g>
<g id="Camada_1">
	<path fill="#FFFFFF" d="M415.139,63.473c7.403-1.839,11.451-6.822,11.451-14.186c0-11.025-9.624-15.959-19.161-15.959h-16.49
		c-2.104,0-3.574,1.413-3.574,3.435v39.939c0,2.192,1.771,3.34,3.519,3.34c1.77,0,3.561-1.171,3.561-3.409V64.133h12.061
		l13.775,14.935c0.721,0.743,1.651,1.151,2.619,1.152c1.413,0,2.715-0.851,3.238-2.115c0.526-1.271,0.179-2.648-0.927-3.753
		L415.139,63.473z M394.443,57.75v-17.76h13.056c7.075,0,11.874,3.741,11.941,9.325c0.056,2.075-0.625,3.902-1.969,5.282
		c-2.009,2.063-5.457,3.153-9.973,3.153H394.443z"/>
	<path fill="#FFFFFF" d="M373.214,54.559c2.55-1.78,3.973-4.639,3.973-8.125c0-9.612-9.035-13.037-17.49-13.037h-16.49
		c-1.972,0-3.575,1.572-3.575,3.505v39.243c0,1.933,1.604,3.505,3.575,3.505h18.09c12.312,0,19.092-5.025,19.092-14.15
		C380.388,60.512,377.86,56.693,373.214,54.559z M346.71,39.92h12.986c1.065,0,10.411,0.183,10.411,6.515
		c0,4.694-5.548,5.68-10.202,5.68H346.71V39.92z M361.296,73.128H346.71V58.636h16.674c2.942,0,9.785,0.669,9.785,6.863
		C373.169,70.561,369.174,73.128,361.296,73.128z"/>
	<path fill="#FFFFFF" d="M242.854,55.662c-0.296-11.489-8.494-21.091-19.508-22.833c-2.483-0.355-5.206-0.357-7.73,0.003
		c-10.788,1.718-18.293,10.889-18.678,22.829c-0.174,6.687,2.236,12.942,6.786,17.612c4.356,4.469,10.1,6.931,16.172,6.931
		c6.039,0,11.968-2.543,16.266-6.976C240.685,68.561,243.061,62.321,242.854,55.662z M232.072,69.534
		c-3.313,3.41-7.638,5.288-12.177,5.288c-4.503,0-8.801-1.872-12.102-5.271c-3.552-3.657-5.425-8.534-5.274-13.733
		c0.265-9.253,5.869-16.316,13.946-17.577c0.984-0.153,2.002-0.231,3.028-0.231c1.025,0,2.044,0.078,3.03,0.232
		c8.33,1.291,14.561,8.682,14.816,17.577C237.49,61.011,235.619,65.882,232.072,69.534z"/>
	<path fill="none" stroke="#FFFFFF" stroke-width="4" stroke-miterlimit="10" d="M465.172,51.354l-21.641-38.258
		c0,0-0.562-1.109-2.711-2.802c-1.951-1.538-5.279-1.837-5.279-1.837H201.182h-19.64H38.683c0,0-2.586,0.141-4.728,1.35
		c-2.715,1.534-3.72,3.536-3.72,3.536L8.896,51.082c0,0-1.406,3.368-1.407,4.808c0,1.362,1.249,4.899,1.249,4.899l21.64,38.26
		c0,0,1.232,3.982,4.623,4.715l145.913-0.076h19.64h235.122c0,0,2.586-0.141,4.729-1.351c2.715-1.534,3.719-3.535,3.719-3.535
		l20.891-37.739c0,0,1.406-3.367,1.406-4.809C466.42,54.891,465.172,51.354,465.172,51.354z"/>
	<path fill="#FFFFFF" d="M97.212,59.029c0,13.857-10.829,21.108-21.526,21.108c-10.697,0-21.526-7.251-21.526-21.108V36.136
		c0-2.158,1.805-3.288,3.587-3.288c1.805,0,3.631,1.153,3.631,3.357v22.823c0,9.675,7.417,14.081,14.308,14.081
		s14.308-4.406,14.308-14.081V36.206c0-2.341,1.826-3.566,3.629-3.566c1.783,0,3.589,1.201,3.589,3.496V59.029z"/>
	<path fill="#FFFFFF" d="M148.127,78.345c-0.542,1.135-1.695,1.839-3.01,1.839c0,0,0,0,0,0c-1.082,0-2.169-0.491-3.062-1.384
		l-15.162-17.618l-15.314,17.568c-1.085,1.174-2.195,1.416-2.938,1.416c-1.314,0-2.514-0.771-3.056-1.963
		c-0.573-1.261-0.301-2.718,0.729-3.898l15.986-18.271L106.8,38.184c-0.862-0.981-1.062-2.204-0.542-3.352
		c0.573-1.266,1.94-2.149,3.325-2.149c0.966,0,1.871,0.423,2.549,1.192l14.766,17.283l14.687-17.201
		c0.675-0.811,1.605-1.262,2.609-1.262c1.424,0,2.812,0.913,3.377,2.22c0.505,1.169,0.254,2.455-0.671,3.438l-15.541,17.685
		l16.052,18.335C148.449,75.655,148.708,77.129,148.127,78.345z"/>
	<path fill="#FFFFFF" d="M193.215,71.157c-1.901,2.675-4.497,4.833-7.707,6.401c-3.438,1.734-7.072,2.616-10.787,2.616
		c-6.232,0-12.314-2.591-16.688-7.107c-4.463-4.607-6.805-10.769-6.594-17.349c0.285-12.066,7.906-21.053,19.415-22.885
		c1.747-0.223,3.3-0.329,4.777-0.329c6.73,0,12.023,2.309,16.657,7.265c0.788,0.941,0.968,2.047,0.52,3.002
		c-0.437,0.932-1.396,1.535-2.445,1.535c-0.786,0-1.53-0.333-2.097-0.938c-3.511-3.815-6.989-5.368-12.009-5.368
		c-1.326,0-2.791,0.101-4.612,0.318c-8.991,1.404-14.521,7.971-14.758,17.562c-0.136,5.001,1.686,9.704,5.129,13.241
		c3.389,3.482,8.067,5.48,12.833,5.48c2.829,0,5.605-0.678,8.25-2.014c2.188-1.093,4.226-2.761,5.741-4.701
		c0.516-0.741,1.348-1.191,2.251-1.191c1.01,0,1.961,0.591,2.423,1.505C193.994,69.146,193.881,70.252,193.215,71.157z"/>
	<path fill="#FFFFFF" d="M287.079,76.408c0,1.927-1.331,2.936-2.646,2.936c-0.958,0-1.943-0.507-2.634-1.356l-26.211-34.164v32.719
		c0,1.79-1.402,2.859-2.758,2.859c-1.356,0-2.759-1.069-2.759-2.859V36.274c0-2.031,1.354-3.093,2.693-3.093
		c0.962,0,1.913,0.513,2.608,1.408l26.122,34.126V36.073c0-1.821,1.42-2.909,2.792-2.909s2.791,1.088,2.791,2.909V76.408z"/>
	<path fill="#FFFFFF" d="M329.652,38.798h-27.158v16.996h25.818c1.694,0,2.707,1.334,2.707,2.625s-1.013,2.624-2.707,2.624h-25.818
		v16.036c0,1.731-1.395,2.767-2.743,2.767c-1.518,0-2.706-1.186-2.706-2.699V36.877c0-1.872,1.493-3.395,3.328-3.395h29.279
		c1.711,0,2.733,1.36,2.733,2.675C332.386,37.437,331.428,38.798,329.652,38.798z"/>
</g>
</svg>
